<?xml version="1.0" encoding="UTF-8"?>
<svg id="_레이어_1" data-name="레이어 1" xmlns="http://www.w3.org/2000/svg" viewBox="0 0 508 585">
  <defs>
    <style>
      .cls-1 {
        fill: #fff;
        stroke-width: 0px;
      }
      .region-border {
        fill: none;
        stroke: #3b82f6;
        stroke-width: 1.5px;
        stroke-opacity: 0.3;
        stroke-dasharray: 2,2;
        transition: all 0.3s ease;
      }
      .region-hover {
        cursor: pointer;
      }
      .region-hover:hover {
        fill: #3b82f680;
      }
    </style>
  </defs>
  <!-- 서울/경기 지역 -->
  <polygon class="cls-1 region-hover" points="143.52 67.21 140.95 67.85 135.79 73.65 134.5 75.58 128.71 74.94 124.92 75.58 117.76 82.67 120.98 86.53 129.35 88.47 129.35 93.62 124.36 93.62 124.2 98.13 124.84 105.22 121.42 105.22 115.82 98.13 113.89 111.66 101.01 116.17 102.94 134.2 106.16 139.36 104.87 145.8 110.67 152.24 117.25 152.24 112.6 157.39 113.89 160.62 122.26 163.27 122.26 165.3 116.47 167.06 117.11 175.43 120.33 189.6 131.93 199.27 150.03 199.27 162.2 202.49 182.82 186.38 194.41 178.65 201.5 140.65 181.53 127.12 178.31 114.23 184.75 109.08 183.46 100.06 169.93 93.62 168 85.89 143.52 67.21"/>
  <polygon class="region-border" points="143.52 67.21 140.95 67.85 135.79 73.65 134.5 75.58 128.71 74.94 124.92 75.58 117.76 82.67 120.98 86.53 129.35 88.47 129.35 93.62 124.36 93.62 124.2 98.13 124.84 105.22 121.42 105.22 115.82 98.13 113.89 111.66 101.01 116.17 102.94 134.2 106.16 139.36 104.87 145.8 110.67 152.24 117.25 152.24 112.6 157.39 113.89 160.62 122.26 163.27 122.26 165.3 116.47 167.06 117.11 175.43 120.33 189.6 131.93 199.27 150.03 199.27 162.2 202.49 182.82 186.38 194.41 178.65 201.5 140.65 181.53 127.12 178.31 114.23 184.75 109.08 183.46 100.06 169.93 93.62 168 85.89 143.52 67.21"/>
  
  <!-- 강원도 지역 -->
  <polygon class="cls-1 region-hover" points="242.08 35 259.8 77.5 269.78 91.69 294.26 124.54 296.84 132.92 316.81 167.7 319.38 178.01 311.01 183.81 303.92 192.18 287.18 187.03 267.85 190.89 262.58 189.45 235 181.87 236.28 171.57 225.98 169.63 219.54 173.5 211.81 168.99 204.72 179.3 194.41 178.65 201.5 140.65 181.53 127.12 178.31 114.23 184.75 109.08 183.46 100.06 169.93 93.62 168 85.89 143.52 67.21 154.47 58.83 193.77 63.34 213.74 59.48 242.08 35"/>
  <polygon class="region-border" points="242.08 35 259.8 77.5 269.78 91.69 294.26 124.54 296.84 132.92 316.81 167.7 319.38 178.01 311.01 183.81 303.92 192.18 287.18 187.03 267.85 190.89 262.58 189.45 235 181.87 236.28 171.57 225.98 169.63 219.54 173.5 211.81 168.99 204.72 179.3 194.41 178.65 201.5 140.65 181.53 127.12 178.31 114.23 184.75 109.08 183.46 100.06 169.93 93.62 168 85.89 143.52 67.21 154.47 58.83 193.77 63.34 213.74 59.48 242.08 35"/>
  
  <!-- 충청도 지역 -->
  <polygon class="cls-1 region-hover" points="216.96 270.13 211.16 272.7 208.59 281.08 207.3 285.59 190.55 288.81 182.82 277.21 182.82 268.16 175.25 268.16 175.25 291.3 162.84 279.73 146.25 279.73 133.22 272.7 126.13 282.37 113.89 285.59 95.21 272.7 102.3 256.6 98.43 249.51 95.21 228.66 86.19 228.9 75.24 216.02 68.05 216.02 68.15 208.93 78.46 199.27 86.19 204.42 90.7 201.2 87.34 192.18 91.34 186.38 117.81 192.18 120.98 199.27 131.93 199.27 150.03 199.27 162.2 202.49 182.82 186.38 194.41 178.65 204.72 179.3 211.81 168.99 219.54 173.5 225.98 169.63 236.28 171.57 235 181.87 262.58 189.45 253.03 197.33 245.3 199.27 249.17 210.86 237.57 215.37 224.69 208.93 214.38 212.15 217.6 219.88 201.5 233.52 216.96 270.13"/>
  <polygon class="region-border" points="216.96 270.13 211.16 272.7 208.59 281.08 207.3 285.59 190.55 288.81 182.82 277.21 182.82 268.16 175.25 268.16 175.25 291.3 162.84 279.73 146.25 279.73 133.22 272.7 126.13 282.37 113.89 285.59 95.21 272.7 102.3 256.6 98.43 249.51 95.21 228.66 86.19 228.9 75.24 216.02 68.05 216.02 68.15 208.93 78.46 199.27 86.19 204.42 90.7 201.2 87.34 192.18 91.34 186.38 117.81 192.18 120.98 199.27 131.93 199.27 150.03 199.27 162.2 202.49 182.82 186.38 194.41 178.65 204.72 179.3 211.81 168.99 219.54 173.5 225.98 169.63 236.28 171.57 235 181.87 262.58 189.45 253.03 197.33 245.3 199.27 249.17 210.86 237.57 215.37 224.69 208.93 214.38 212.15 217.6 219.88 201.5 233.52 216.96 270.13"/>
  
  <!-- 전라도 지역 -->
  <path class="cls-1 region-hover" d="M319.38,178.01l5.8,7.73v26.67l4.51,6.82-6.49,10.91,1.34,16.13-7.09,9.69,1.93,10.29v7.45l4.19,14.22,10.63-10.05,4.91,10.05-13.93,35.04,3.1,4.91-5.68,11.2-9.02,12.24-5.8,12.24-15.46,11.6h-12.13l-17.62-10.71-5.68-4.11s.64,7.36,2.9,8.51,2.79,6.31,2.79,6.31h-18.61v17.73l-24.44-2.92-3.87-10.31-10.95,5.15-16.1-13.53-3.22-15.46,5.15-11.6-5.15-15.33,9.02-21.38,12.88-11.6v-10.31s3.87-12.88,3.87-12.88l5.8-2.58-15.46-36.61,16.1-13.64-3.22-7.73,10.31-3.22,12.88,6.44,11.6-4.51-3.87-11.6,7.73-1.93,9.55-7.89,5.27,1.45,51.53-12.88Z"/>
  <path class="region-border" d="M319.38,178.01l5.8,7.73v26.67l4.51,6.82-6.49,10.91,1.34,16.13-7.09,9.69,1.93,10.29v7.45l4.19,14.22,10.63-10.05,4.91,10.05-13.93,35.04,3.1,4.91-5.68,11.2-9.02,12.24-5.8,12.24-15.46,11.6h-12.13l-17.62-10.71-5.68-4.11s.64,7.36,2.9,8.51,2.79,6.31,2.79,6.31h-18.61v17.73l-24.44-2.92-3.87-10.31-10.95,5.15-16.1-13.53-3.22-15.46,5.15-11.6-5.15-15.33,9.02-21.38,12.88-11.6v-10.31s3.87-12.88,3.87-12.88l5.8-2.58-15.46-36.61,16.1-13.64-3.22-7.73,10.31-3.22,12.88,6.44,11.6-4.51-3.87-11.6,7.73-1.93,9.55-7.89,5.27,1.45,51.53-12.88Z"/>
  
  <!-- 경상도 지역 -->
  <polygon class="cls-1 region-hover" points="113.89 285.59 102.3 289.45 106.16 296.54 121.82 296.54 116.47 302.34 115.82 306.2 108.95 306.2 106.16 313.93 93.92 323.59 111.96 325.53 91.99 339.7 82.33 359.02 93.28 374.48 82.33 386.65 94.56 404.12 102.07 440.82 101.01 445.99 106.8 444.7 120.33 418.93 129.35 436.97 155.12 405.4 160.27 410.56 149.32 424.09 158.34 430.53 174.44 420.87 182.31 392.86 204.72 384.79 188.62 371.26 185.39 355.8 190.55 344.21 185.39 328.87 194.41 307.49 207.3 295.89 207.3 285.59 190.55 288.81 182.82 277.21 182.82 268.16 175.25 268.16 175.25 291.3 162.84 279.73 146.25 279.73 133.22 272.7 126.13 282.37 113.89 285.59"/>
  <polygon class="region-border" points="113.89 285.59 102.3 289.45 106.16 296.54 121.82 296.54 116.47 302.34 115.82 306.2 108.95 306.2 106.16 313.93 93.92 323.59 111.96 325.53 91.99 339.7 82.33 359.02 93.28 374.48 82.33 386.65 94.56 404.12 102.07 440.82 101.01 445.99 106.8 444.7 120.33 418.93 129.35 436.97 155.12 405.4 160.27 410.56 149.32 424.09 158.34 430.53 174.44 420.87 182.31 392.86 204.72 384.79 188.62 371.26 185.39 355.8 190.55 344.21 185.39 328.87 194.41 307.49 207.3 295.89 207.3 285.59 190.55 288.81 182.82 277.21 182.82 268.16 175.25 268.16 175.25 291.3 162.84 279.73 146.25 279.73 133.22 272.7 126.13 282.37 113.89 285.59"/>
  
  <!-- 제주도 지역 -->
  <polygon class="cls-1 region-hover" points="82.33 524.27 124.2 514.27 134.5 522.65 128.71 540.68 77.82 549.7 63 539.39 82.33 524.27"/>
  <polygon class="region-border" points="82.33 524.27 124.2 514.27 134.5 522.65 128.71 540.68 77.82 549.7 63 539.39 82.33 524.27"/>
  
  <!-- 울릉도 및 기타 -->
  <path class="cls-1 region-hover" d="M422.45,145.16l-7.09,6.44s6.44,2.71,7.09,2.64,6.44-3.29,6.44-3.29l-5.15-5.15-1.29-.64Z"/>
  <path class="region-border" d="M422.45,145.16l-7.09,6.44s6.44,2.71,7.09,2.64,6.44-3.29,6.44-3.29l-5.15-5.15-1.29-.64Z"/>
  
  <polygon class="cls-1 region-hover" points="436.63 150.95 434.69 156.11 442.42 158.04 436.63 150.95"/>
  <polygon class="region-border" points="436.63 150.95 434.69 156.11 442.42 158.04 436.63 150.95"/>
  
  <polygon class="cls-1 region-hover" points="440.74 151.66 445 153.53 442.87 150.95 440.74 151.66"/>
  <polygon class="region-border" points="440.74 151.66 445 153.53 442.87 150.95 440.74 151.66"/>
</svg>
