<?xml version="1.0" encoding="UTF-8"?>
<svg id="_컬러표" data-name="컬러표" xmlns="http://www.w3.org/2000/svg" viewBox="0 0 283.46 283.46">
  <defs>
    <style>
      .cls-1 {
        fill: #c8365d;
      }
    </style>
  </defs>
  <path class="cls-1" d="M210.82,90.15c-14.3-20.23-36.4-17.41-36.4-17.41,0,0-10.47-8.43-9.75-13.73.73-5.3-.34-7.02-.34-7.02-5.73-5.54-11.13,8.09-11.44,9.25-.31,1.15.5,6.6-2.59,12.22-3.09,5.61-23.62,23.79-24.28,24.54-.37.42-6.49,5.8-12.29,10.81-3.3-1.95-6.94-3.45-10.85-4.41-21.43-5.24-43.04,7.88-48.28,29.3-5.24,21.42,7.88,43.04,29.3,48.28,1.76.43,3.52.74,5.27.92-.04.15-.08.3-.12.46-5.24,21.42,7.87,43.04,29.3,48.28,20.61,5.04,41.4-6.92,47.6-26.92,13.13-3.92,23.89-14.51,27.38-28.78,4.72-19.3-5.46-38.77-23.2-46.26-2.96-10.64-5.79-20.55-6.58-23.63-1.79-6.97-3.82-24.75-3.85-31.32-.04-6.57,1.72-6.17,4.61-6.59,2.89-.43,6.34,5.62,6.06,9.83-.27,4.2-1.64,6.37,1.26,20.82,2.9,14.46,33.42,54.9,38.01,60.13,4.58,5.23,4.63,18.04,5.83,15.49,1.2-2.54,6.3-7.98,12.55-28.78,6.24-20.81-2.9-35.25-17.2-55.48ZM132.12,133.43c-2.12-8.37-6.91-15.88-13.65-21.32,11.86-10.58,27.09-24.91,28.8-26.13,2.71-1.94,1.82.26,2.16,2.56.29,1.97-9.81,29.71-15.5,43.71-.61.37-1.22.76-1.81,1.18ZM161.77,116.68c.27,1.2,1.44,5.81,2.78,11.12-.17-.05-.34-.1-.52-.14-7.04-1.72-14.1-1.46-20.59.43,5.86-16.96,9.78-35.97,10.07-37.81.4-2.55,2.43-4.77,2.03-2.21-.41,2.55,5.62,25.8,6.23,28.61Z"/>
</svg>